# xmcd
#
# Track frame offsets: 
#        182
#        13805
#        27262
#        42130
#        56912
#        71115
#        86607
#        98505
#        112595
#        127247
#        138980
#        151330
#        165325
#        179685
#
# Disc length: 2586 seconds
#
# Revision: 5
# Processed by: cddbd v1.5.2PL0 Copyright (c) Steve Scherf et al.
# Submitted via: ExactAudioCopy v0.99pb4
#
DISCID=b60a180e
DTITLE=Armstrong Louis - Mack The Knife CD2
DYEAR=1999
DGENRE=Jazz
TTITLE0=Struttin' With Some Barbecue
TTITLE1=Hotter Than That
TTITLE2=West End Blues
TTITLE3=Basin Street Blues
TTITLE4=Twefth Street Rag
TTITLE5=Savoy Blues
TTITLE6=Muskrat Ramble
TTITLE7=Cornet Shop Suey
TTITLE8=Skid-Dat-De-Dat
TTITLE9=Come Back Sweet Papa
TTITLE10=Yes, I'm In The Barrel
TTITLE11=Weary Blues
TTITLE12=Put 'Em Down Blues
TTITLE13=A Monday Date
EXTD=Best of sampler YEAR: 1994
EXTT0=
EXTT1=
EXTT2=
EXTT3=
EXTT4=
EXTT5=
EXTT6=
EXTT7=
EXTT8=
EXTT9=
EXTT10=
EXTT11=
EXTT12=
EXTT13=
PLAYORDER=
